PathFileType	4	(X/Y/Z)	C:/Users/CLatella/Desktop/xsens/test 22settembre2016/Meri Veloce/Meri-002_My MVN System.trc	
DataRate	CameraRate	NumFrames	NumMarkers	Units	OrigDataRate	OrigDataStartFrame	OrigNumFrames	
240.00	240.00	4	64	mm	240.00	448	597	
Frame#	Time	pHipOrigin			pRightASI			pLeftASI			pRightCSI			pLeftCSI			pRightIschialTub			pLeftIschialTub			pSacrum			pL5SpinalProcess			pL3SpinalProcess			pT12SpinalProcess			pPX			pIJ			pT4SpinalProcess			pT8SpinalProcess			pC7SpinalProcess			pTopOfHead			pRightAuricularis			pLeftAuricularis			pBackOfHead			pRightAcromion			pLeftAcromion			pRightArmLatEpicondyle			pRightArmMedEpicondyle			pLeftArmLatEpicondyle			pLeftArmMedEpicondyle			pRightUlnarStyloid			pRightRadialStyloid			pRightOlecranon			pLeftUlnarStyloid			pLeftRadialStyloid			pLeftOlecranon			pRightTopOfHand			pRightPinky			pRightBallHand			pLeftTopOfHand			pLeftPinky			pLeftBallHand			pRightGreaterTrochanter			pRightKneeLatEpicondyle			pRightKneeMedEpicondyle			pRightPatella			pLeftGreaterTrochanter			pLeftKneeLatEpicondyle			pLeftKneeMedEpicondyle			pLeftPatella			pRightLatMalleolus			pRightMedMalleolus			pRightTibialTub			pLeftLatMalleolus			pLeftMedMalleolus			pLeftTibialTub			pRightHeelFoot			pRightFirstMetatarsal			pRightFifthMetatarsal			pRightPivotFoot			pRightHeelCenter			pRightToe			pLeftHeelFoot			pLeftFirstMetatarsal			pLeftFifthMetatarsal			pLeftPivotFoot			pLeftHeelCenter			pLeftToe			
		X1	Y1	Z1	X2	Y2	Z2	X3	Y3	Z3	X4	Y4	Z4	X5	Y5	Z5	X6	Y6	Z6	X7	Y7	Z7	X8	Y8	Z8	X9	Y9	Z9	X10	Y10	Z10	X11	Y11	Z11	X12	Y12	Z12	X13	Y13	Z13	X14	Y14	Z14	X15	Y15	Z15	X16	Y16	Z16	X17	Y17	Z17	X18	Y18	Z18	X19	Y19	Z19	X20	Y20	Z20	X21	Y21	Z21	X22	Y22	Z22	X23	Y23	Z23	X24	Y24	Z24	X25	Y25	Z25	X26	Y26	Z26	X27	Y27	Z27	X28	Y28	Z28	X29	Y29	Z29	X30	Y30	Z30	X31	Y31	Z31	X32	Y32	Z32	X33	Y33	Z33	X34	Y34	Z34	X35	Y35	Z35	X36	Y36	Z36	X37	Y37	Z37	X38	Y38	Z38	X39	Y39	Z39	X40	Y40	Z40	X41	Y41	Z41	X42	Y42	Z42	X43	Y43	Z43	X44	Y44	Z44	X45	Y45	Z45	X46	Y46	Z46	X47	Y47	Z47	X48	Y48	Z48	X49	Y49	Z49	X50	Y50	Z50	X51	Y51	Z51	X52	Y52	Z52	X53	Y53	Z53	X54	Y54	Z54	X55	Y55	Z55	X56	Y56	Z56	X57	Y57	Z57	X58	Y58	Z58	X59	Y59	Z59	X60	Y60	Z60	X61	Y61	Z61	X62	Y62	Z62	X63	Y63	Z63	X64	Y64	Z64	

448	1.862	126.13619	212.18142	928.20603	195.19288	94.01331	1000.72056	191.78515	333.55681	998.61578	162.86954	114.96084	1073.68611	160.06317	312.96008	1071.93213	72.26396	161.51647	883.65494	70.86078	260.54115	882.80301	59.23440	211.47983	954.26515	98.22286	213.03336	1025.37650	112.00413	210.77824	1129.31232	129.39358	207.47073	1220.16847	284.19482	202.20880	1267.12501	311.25622	195.19288	1374.31822	175.49819	197.59834	1386.84665	152.44589	202.76005	1309.22052	188.57787	194.59151	1432.85103	358.91435	192.63708	1621.77969	298.37699	126.58722	1547.16039	297.57517	257.13342	1546.50891	250.56852	191.68492	1566.35393	233.42963	26.56026	1389.65301	219.59825	373.44732	1383.99016	337.56591	59.63531	1093.73159	315.11497	116.36402	1092.37852	300.63211	369.13754	1078.89793	287.15152	309.75280	1075.74077	371.24232	75.37101	867.16753	412.18522	96.46888	877.09005	306.54553	75.22067	1088.82045	365.12845	355.45650	858.59809	400.05770	326.44067	871.07640	276.67776	356.20821	1071.88202	492.06646	55.42576	736.17031	427.01887	39.53971	784.27947	394.29462	71.56237	836.44783	498.83181	384.32200	746.09283	438.54502	401.96202	799.46392	392.79121	365.83004	837.09931	112.80595	64.04531	904.10133	114.40959	70.56010	523.03673	131.64870	142.07235	518.62672	163.67136	99.22513	523.53787	136.71018	361.01912	903.14917	96.91990	364.07606	524.08912	83.74000	291.71187	519.17797	130.49609	318.22202	520.02991	114.71027	55.72644	96.11808	115.36175	118.51891	93.16138	189.53003	104.83787	485.70202	66.04986	379.81176	97.52127	74.26851	317.62066	93.46206	154.40032	334.30852	484.74986	78.87897	85.14318	0.05011	223.15632	116.96539	5.01137	222.80553	50.26405	6.56490	241.89885	84.44159	6.56490	118.26834	85.04296	5.91342	318.72316	84.09080	8.76990	30.97027	342.52717	2.35534	178.75558	341.17410	1.90432	164.72375	406.37203	3.45785	190.43208	376.90517	2.75625	69.70816	350.79593	6.71524	265.60263	393.09189	1.95443 
449	1.867	126.83778	212.33176	928.15591	195.74413	94.16365	1000.87090	192.23617	333.75727	998.76612	163.22033	115.11118	1073.73622	160.36385	313.11042	1071.98224	73.06578	161.66681	883.50460	71.61248	260.64137	882.65267	59.83576	211.58006	954.06470	98.67388	213.18370	1025.27627	112.05424	210.92858	1129.21209	129.09290	207.67119	1220.11835	283.69368	202.45936	1267.87671	310.15371	195.54367	1375.17015	174.34558	197.89902	1386.99699	151.69418	203.01062	1309.27063	187.22480	194.89220	1433.10159	357.21048	192.98787	1622.43117	296.72324	126.93801	1547.76175	295.97154	257.48421	1547.06016	248.91477	192.03571	1566.90518	232.17679	26.86095	1390.05392	218.39552	373.74800	1384.39107	337.31534	60.03622	1094.43318	314.91452	116.76493	1093.03000	300.23120	369.08743	1079.44919	286.80073	309.65258	1076.34214	371.54300	76.12272	867.91924	412.48590	97.12036	878.04221	306.24485	75.67169	1089.42181	364.97811	355.05559	859.19946	399.95747	326.13999	871.82811	276.27685	356.10798	1072.38315	493.06873	56.52826	737.42316	427.77058	40.54199	785.18152	394.79576	72.36419	837.24965	499.13249	383.97120	747.19533	438.54502	401.56111	800.26574	392.74110	365.42913	837.75079	113.60777	64.14554	904.10133	114.86061	70.50998	523.03673	131.99950	142.07235	518.57661	164.12238	99.22513	523.48775	137.41178	361.16947	903.09906	97.32081	364.17629	524.08912	84.09080	291.81210	519.17797	130.84688	318.22202	519.97979	114.71027	55.62621	96.11808	115.31163	118.41868	93.11126	189.88082	104.83787	485.65191	66.09998	379.86188	97.52127	74.26851	317.67077	93.46206	154.75112	334.35863	484.64963	78.77874	85.04296	0.10023	223.05610	116.86516	4.91114	222.70530	50.16382	6.46467	241.79862	84.34136	6.46467	118.16811	84.99284	5.91342	318.62293	83.99057	8.56944	31.02038	342.62739	2.35534	178.80570	341.27432	1.90432	164.72375	406.47225	3.45785	190.48219	377.00540	2.75625	69.70816	350.84604	6.71524	265.60263	393.19212	1.95443 
450	1.871	127.48926	212.48211	928.10580	196.34549	94.36410	1000.97112	192.68719	333.90761	998.86635	163.62124	115.26152	1073.73622	160.61442	313.26076	1072.03236	73.91771	161.76704	883.30415	72.41430	260.79172	882.45221	60.43713	211.68029	953.86424	99.12491	213.28392	1025.12593	112.15447	211.07892	1129.11187	128.79222	207.82153	1220.06824	283.14243	202.76005	1268.57830	309.05121	195.84436	1376.02209	173.19296	198.14959	1387.14733	150.94248	203.21107	1309.32075	185.82161	195.24299	1433.40228	355.50662	193.28856	1623.08265	295.11960	127.28881	1548.36311	294.31778	257.83501	1547.66152	247.26102	192.38651	1567.45644	230.97406	27.11151	1390.45483	217.14268	374.04869	1384.79198	337.01466	60.48724	1095.13477	314.66395	117.21595	1093.73159	299.83029	369.08743	1080.00044	286.44993	309.60246	1076.99361	371.84368	76.82431	868.72106	412.78658	97.77184	878.94426	305.99428	76.17283	1090.02318	364.82777	354.65468	859.85093	399.85724	325.88942	872.52970	275.92605	356.00775	1072.93440	494.12112	57.63076	738.72611	428.52228	41.49415	786.08356	395.29690	73.16601	838.05147	499.43317	383.67052	748.24772	438.59514	401.26043	801.01745	392.69098	365.07833	838.45238	114.45970	64.24577	904.10133	115.36175	70.45987	523.03673	132.35029	142.02224	518.52650	164.52329	99.27525	523.43764	138.11337	361.31981	902.99883	97.77184	364.22640	524.03900	84.44159	291.91233	519.17797	131.24779	318.27213	519.97979	114.71027	55.57610	96.11808	115.31163	118.36857	93.11126	190.28173	104.83787	485.55168	66.15009	379.96210	97.52127	74.31862	317.72088	93.46206	155.10191	334.40875	484.59952	78.72863	84.99284	0.10023	222.95587	116.81504	4.81092	222.60507	50.11370	6.36444	241.69839	84.29125	6.31433	118.11800	84.89261	5.86330	318.57282	83.89034	8.41910	31.02038	342.67751	2.35534	178.80570	341.32444	1.90432	164.77386	406.57248	3.40773	190.48219	377.05551	2.70614	69.70816	350.89616	6.71524	265.65275	393.29235	1.90432 
451	1.875	128.19085	212.63245	928.05569	196.89674	94.51445	1001.07135	193.13822	334.10806	998.96658	164.02215	115.41186	1073.78634	160.91510	313.46122	1072.03236	74.66942	161.86726	883.15381	73.16601	260.89194	882.30187	61.08861	211.83063	953.66379	99.57593	213.43427	1024.97559	112.20458	211.27938	1129.01164	128.44142	208.02199	1219.96801	282.64129	203.01062	1269.33001	307.99883	196.19515	1376.87402	172.04035	198.45027	1387.29767	150.19077	203.46164	1309.32075	184.46854	195.54367	1433.65285	353.85286	193.63935	1623.68401	293.46585	127.63960	1548.91436	292.71415	258.18580	1548.21277	245.60726	192.73731	1567.95757	229.72122	27.36208	1390.85574	215.93995	374.34937	1385.19289	336.76409	60.93826	1095.78625	314.46349	117.66698	1094.38307	299.47950	369.03732	1080.50157	286.14925	309.55235	1077.59498	372.14437	77.57601	869.47277	413.08726	98.42331	879.84630	305.74371	76.67397	1090.67466	364.72754	354.35400	860.45230	399.75702	325.63885	873.28141	275.52514	355.90753	1073.43554	495.12340	58.73326	740.02907	429.32410	42.44631	786.98561	395.74792	74.01794	838.90341	499.68374	383.36984	749.30010	438.59514	400.95975	801.81926	392.59076	364.77765	839.10386	115.26152	64.39611	904.10133	115.81277	70.40975	523.03673	132.70109	142.02224	518.47638	164.92420	99.32536	523.38753	138.81496	361.42003	902.94872	98.17275	364.27651	523.98889	84.74227	291.96244	519.17797	131.59859	318.27213	519.87957	114.71027	55.47587	96.06797	115.31163	118.26834	93.11126	190.63253	104.78776	485.45145	66.20020	380.01222	97.52127	74.31862	317.82111	93.46206	155.45271	334.45886	484.49929	78.62840	84.89261	0.10023	222.90576	116.71482	4.71069	222.55496	50.01348	6.21410	241.64828	84.19102	6.21410	118.01777	84.84250	5.86330	318.47259	83.84023	8.21865	31.02038	342.72762	2.35534	178.85581	341.42467	1.85421	164.77386	406.62259	3.40773	190.48219	377.10562	2.70614	69.75828	350.99638	6.71524	265.65275	393.34246	1.90432 
